Coordinates
version=1
nRows=5
nColumns=40
inDegrees=yes

Units are S.I. units (second, meters, Newtons, ...)
If the header above contains a line with 'inDegrees', this indicates whether rotational values are in degrees (yes) or radians (no).

endheader
time	pelvis_tilt	pelvis_list	pelvis_rotation	pelvis_tx	pelvis_ty	pelvis_tz	hip_flexion_r	hip_adduction_r	hip_rotation_r	knee_angle_r	knee_angle_r_beta	ankle_angle_r	subtalar_angle_r	mtp_angle_r	hip_flexion_l	hip_adduction_l	hip_rotation_l	knee_angle_l	knee_angle_l_beta	ankle_angle_l	subtalar_angle_l	mtp_angle_l	lumbar_extension	lumbar_bending	lumbar_rotation	arm_flex_r	arm_add_r	arm_rot_r	elbow_flex_r	pro_sup_r	wrist_flex_r	wrist_dev_r	arm_flex_l	arm_add_l	arm_rot_l	elbow_flex_l	pro_sup_l	wrist_flex_l	wrist_dev_l
      2.00000000	      5.77589227	     -5.23846685	     -2.65135155	     -0.31996334	      1.04722074	     -1.05133055	     35.90987437	      0.99671880	     -1.49891073	      4.80126349	      0.08379786	      1.27439579	      0.00000000	      0.00000000	      6.37492836	     -2.51700521	     -4.69533692	     26.06765372	      0.45496639	      0.78110869	      0.00000000	      0.00000000	     -6.63161896	     -0.24917619	      1.40832325	     89.87271084	    -17.97560122	     43.71090734	     31.43551630	     83.90216690	      0.00000000	      0.00000000	     88.94048606	    -48.48132308	     36.37769638	     36.80875918	     86.43580661	      0.00000000	      0.00000000
      2.00500000	      5.78748656	     -5.20362588	     -2.70631868	     -0.31991754	      1.04710581	     -1.05140483	     35.87682842	      1.00319976	     -1.42400316	      4.88527148	      0.08526407	      1.30439400	      0.00000000	      0.00000000	      6.36780812	     -2.50471384	     -4.79203945	     26.10302774	      0.45558378	      0.85684291	      0.00000000	      0.00000000	     -6.64587455	     -0.27284023	      1.44547967	     89.87231571	    -17.90770504	     43.73897811	     31.46839698	     83.13982736	      0.00000000	      0.00000000	     88.91265746	    -48.52394895	     36.25441575	     36.75111311	     86.60157261	      0.00000000	      0.00000000
      2.01000000	      5.77431886	     -5.19176653	     -2.68613060	     -0.31985880	      1.04695658	     -1.05160788	     35.85261906	      0.98571329	     -1.56757652	      4.91182166	      0.08572746	      1.24630662	      0.00000000	      0.00000000	      6.42132928	     -2.50126036	     -4.80893886	     26.19898339	      0.45725852	      0.87253775	      0.00000000	      0.00000000	     -6.62616036	     -0.27145423	      1.45711125	     89.87315368	    -17.96489972	     43.83032444	     31.54270954	     83.67867213	      0.00000000	      0.00000000	     88.87870740	    -48.43819146	     36.11930747	     36.65475672	     86.52343953	      0.00000000	      0.00000000
      2.01500000	      5.79186108	     -5.15562524	     -2.70989273	     -0.31979698	      1.04684470	     -1.05176021	     35.80301002	      0.96938073	     -1.50851835	      4.97446439	      0.08682078	      1.37288192	      0.00000000	      0.00000000	      6.41045220	     -2.49043535	     -4.95878177	     26.22258603	      0.45767046	      0.80614465	      0.00000000	      0.00000000	     -6.65101978	     -0.30200981	      1.49733498	     89.87347944	    -18.05238739	     43.96691051	     31.71653376	     83.96003208	      0.00000000	      0.00000000	     88.86791875	    -48.40876351	     35.99793951	     36.59451426	     86.42346174	      0.00000000	      0.00000000
      2.02000000	      5.81766011	     -5.15916933	     -2.75460209	     -0.31960275	      1.04668527	     -1.05189766	     35.74876848	      1.00030397	     -1.51937375	      5.03639022	      0.08790159	      1.37409869	      0.00000000	      0.00000000	      6.39017725	     -2.51915212	     -5.11780755	     26.29725919	      0.45897376	      0.90060952	      0.00000000	      0.00000000	     -6.65792234	     -0.29452565	      1.60106138	     89.87353267	    -18.16129256	     44.09720380	     31.80606905	     84.04948822	      0.00000000	      0.00000000	     88.86590423	    -48.27259901	     35.88145603	     36.44486743	     86.36072458	      0.00000000	      0.00000000
